<mxfile host="app.diagrams.net" modified="2023-07-05T11:40:50.782Z" agent="Mozilla/5.0 (Windows NT 10.0; Win64; x64) AppleWebKit/537.36 (KHTML, like Gecko) Chrome/114.0.0.0 Safari/537.36" version="21.5.2" etag="rlxObZ9E8sIk0RAJWBgh" type="github">
  <diagram name="Page-1" id="ips6KebYGWYDXyPao_v-">
    <mxGraphModel>
      <root>
        <mxCell id="0" />
        <mxCell id="1" parent="0" />
      </root>
    </mxGraphModel>
  </diagram>
</mxfile>
